<svg viewBox="0 0 12 12" fill="none" xmlns="http://www.w3.org/2000/svg">
<path d="M11.646 5.748L6.246 0.348C6.03 0.132 5.73 0 5.4 0H1.2C0.54 0 0 0.54 0 1.2V5.4C0 5.73 0.132 6.03 0.354 6.252L5.754 11.652C5.97 11.868 6.27 12 6.6 12C6.93 12 7.23 11.868 7.446 11.646L11.646 7.446C11.868 7.23 12 6.93 12 6.6C12 6.27 11.862 5.964 11.646 5.748ZM6.6 10.806L1.2 5.4V1.2H5.4V1.194L10.8 6.594L6.6 10.806Z" fill="#47689A"/>
<path d="M2.69999 3.60005C3.19704 3.60005 3.59999 3.19711 3.59999 2.70005C3.59999 2.20299 3.19704 1.80005 2.69999 1.80005C2.20293 1.80005 1.79999 2.20299 1.79999 2.70005C1.79999 3.19711 2.20293 3.60005 2.69999 3.60005Z" fill="#47689A"/>
</svg>
