<svg viewBox="1 0 57 57" fill="none" xmlns="http://www.w3.org/2000/svg">
    <path d="M0.710416 0.0436975L56.1423 0.0548981L0.721483 56.1423L0.710416 0.0436975Z" fill="#AA4E4E"/>
    <path d="M13.6926 30.7921L14.9344 29.6606L12.5654 26.9979C11.8874 26.2359 11.048 25.491 10.3478 24.8303L10.3921 24.7899L12.3256 25.6092L17.3824 27.4298L18.7129 26.2175L12.8103 19.5832L11.5686 20.7147L13.9216 23.3595C14.5916 24.1125 15.4709 24.9022 16.156 25.5279L16.1117 25.5683L14.1791 24.732L9.12936 22.9374L7.79001 24.1578L13.6926 30.7921ZM20.0899 24.9627L24.2144 21.2043L23.2253 20.0926L20.4135 22.6548L18.8342 20.8797L21.1404 18.7782L20.1513 17.6665L17.8451 19.768L16.4812 18.2349L19.1953 15.7617L18.2142 14.6589L14.1873 18.3284L20.0899 24.9627ZM25.9214 19.6488L27.5268 18.1859L25.3259 14.2499C24.9697 13.6329 24.6038 13.0411 24.2458 12.4582L24.2813 12.4259C24.8078 12.8552 25.36 13.2773 25.9291 13.7003L29.5846 16.3108L31.2167 14.8236L26.5293 7.08197L25.2786 8.2216L27.6437 11.9269C28.1603 12.7061 28.6929 13.5033 29.2334 14.3094L29.1891 14.3498C28.409 13.7619 27.6379 13.1659 26.8898 12.6139L23.2475 10.0725L22.1299 11.0909L24.2466 15.0224C24.7188 15.8421 25.215 16.6886 25.7121 17.5181L25.6766 17.5505C24.9489 16.9311 24.2123 16.3198 23.4926 15.7095L20.0898 12.9498L18.7505 14.1703L25.9214 19.6488Z" fill="white"/>
</svg>
